<?xml version="1.0"?>
<svg version="1.1" xmlns="http://www.w3.org/2000/svg" width="322px" height="100px" style=""><path fill="#7200c9" d="M56.304,41.888l-5.928,0l-16.614,41.262l-15.678-41.262l-4.914,0l20.592,54.912z"/><path fill="#0097c9" d="M80.84,59.96l3,0q3.04,0,5.04-2t2-5.04q0-2.68-2-4.8q-2.12-2.2-5.04-2.2l-12.52,0l-2.48,0l0,28.08l2.48,0l0-14.04l6.52,0l8.52,14.04l3,0z M71.32,57.48l0-9.04l12.52,0q1.84,0,3.24,1.32q1.32,1.32,1.32,3.16q0,1.92-1.32,3.24q-1.4,1.32-3.24,1.32l-12.52,0z M107.3136,45.84q-4.48,0-7.52,3.24q-3,3.2-3,7.8l0,17.12l2.52,0l0-12.56l16.08,0l0,12.56l2.52,0l0-17.12q0-4.6-3-7.8q-3.12-3.24-7.6-3.24z M115.3936,58.96l-16.08,0l0-2.08q0-3.44,2.32-5.96q2.36-2.56,5.68-2.56t5.76,2.56q2.32,2.52,2.32,5.96l0,2.08z M145.2272,46l-2.48,0l0,2.96q0,3.68-2.56,6.16q-2.52,2.4-6,2.4q-3.72,0-6.12-2.4t-2.4-6.16l0-2.96l-2.48,0l0,2.96q0,4.48,2.72,7.6q2.68,3.16,6.8,3.44l0,14.04l2.52,0l0-14.04q4.2-0.32,7.08-3.44q2.92-3.12,2.92-7.6l0-2.96z M170.9808,46l-21.68,0l0,2.44l9.84,0l0,25.64l2.48,0l0-25.64l9.36,0l0-2.44z M188.1344,59.96l3,0q3.04,0,5.04-2t2-5.04q0-2.68-2-4.8q-2.12-2.2-5.04-2.2l-12.52,0l-2.48,0l0,28.08l2.48,0l0-14.04l6.52,0l8.52,14.04l3,0z M178.6144,57.48l0-9.04l12.52,0q1.84,0,3.24,1.32q1.32,1.32,1.32,3.16q0,1.92-1.32,3.24q-1.4,1.32-3.24,1.32l-12.52,0z M214.488,45.84q-4.48,0-7.52,3.24q-3,3.2-3,7.8l0,17.12l2.52,0l0-12.56l16.08,0l0,12.56l2.52,0l0-17.12q0-4.6-3-7.8q-3.12-3.24-7.6-3.24z M222.568,58.96l-16.08,0l0-2.08q0-3.44,2.32-5.96q2.36-2.56,5.68-2.56t5.76,2.56q2.32,2.52,2.32,5.96l0,2.08z M252.0016,74l0-2.52l-7.12,0q-4.96,0-8.32-3.36t-3.36-8.32q0-4.56,3.36-7.84t8.32-3.28l7.12,0l0-2.6l-7.12,0q-6.04,0-10.12,4q-4.08,3.96-4.08,9.72q0,6.12,4.08,10.12q4,4.08,10.12,4.08l7.12,0z M259.6752,66.32q0-1.92,1.36-3.48q1.36-1.64,3.28-1.64l0.52,0l7.48,0l0-2.48l-7.48,0l-0.52,0q-2.04-0.4-3.34-1.76t-1.3-3.24q0-2.36,1.38-3.74t3.78-1.38l13.6,0l0-2.52l-13.6,0q-3.08,0-5.36,2.28q-2.28,2.2-2.28,5.36q0,2,0.76,3.64t2.24,2.36q-1.48,1.08-2.24,2.84t-0.76,3.76q0,3.12,2.28,5.32q2.32,2.32,5.36,2.32l13.6,0l0-2.64l-13.6,0q-2.4,0-3.78-1.36t-1.38-3.64z M295.6688,59.96l3,0q3.04,0,5.04-2t2-5.04q0-2.68-2-4.8q-2.12-2.2-5.04-2.2l-12.52,0l-2.48,0l0,28.08l2.48,0l0-14.04l6.52,0l8.52,14.04l3,0z M286.1488,57.48l0-9.04l12.52,0q1.84,0,3.24,1.32q1.32,1.32,1.32,3.16q0,1.92-1.32,3.24q-1.4,1.32-3.24,1.32l-12.52,0z"/></svg>
